<svg width="30" height="30" viewBox="0 0 30 30" fill="none" xmlns="http://www.w3.org/2000/svg">
<path d="M7 6.35714C7 5.99721 7.14048 5.65201 7.39052 5.3975C7.64057 5.14298 7.97971 5 8.33333 5H11C11.3536 5 11.6928 5.14298 11.9428 5.3975C12.1929 5.65201 12.3333 5.99721 12.3333 6.35714V23.6429C12.3333 24.0028 12.1929 24.348 11.9428 24.6025C11.6928 24.857 11.3536 25 11 25H8.33333C7.97971 25 7.64057 24.857 7.39052 24.6025C7.14048 24.348 7 24.0028 7 23.6429V6.35714Z" stroke="#CCCCCC" stroke-width="2" stroke-linecap="round" stroke-linejoin="round"/>
<path d="M17.6667 6.35714C17.6667 5.99721 17.8071 5.65201 18.0572 5.3975C18.3072 5.14298 18.6464 5 19 5H21.6667C22.0203 5 22.3594 5.14298 22.6095 5.3975C22.8595 5.65201 23 5.99721 23 6.35714V23.6429C23 24.0028 22.8595 24.348 22.6095 24.6025C22.3594 24.857 22.0203 25 21.6667 25H19C18.6464 25 18.3072 24.857 18.0572 24.6025C17.8071 24.348 17.6667 24.0028 17.6667 23.6429V6.35714Z" stroke="#CCCCCC" stroke-width="2" stroke-linecap="round" stroke-linejoin="round"/>
</svg>
