<svg width="100" height="100" viewBox="0 0 100 100" fill="none" xmlns="http://www.w3.org/2000/svg">
<rect x="1" y="1" width="98" height="98" rx="49" stroke="white" stroke-width="2"/>
<path d="M42 41.3571C42 40.9972 42.1405 40.652 42.3905 40.3975C42.6406 40.143 42.9797 40 43.3333 40H46C46.3536 40 46.6928 40.143 46.9428 40.3975C47.1929 40.652 47.3333 40.9972 47.3333 41.3571V58.6429C47.3333 59.0028 47.1929 59.348 46.9428 59.6025C46.6928 59.857 46.3536 60 46 60H43.3333C42.9797 60 42.6406 59.857 42.3905 59.6025C42.1405 59.348 42 59.0028 42 58.6429V41.3571Z" stroke="white" stroke-width="2" stroke-linecap="round" stroke-linejoin="round"/>
<path d="M52.6667 41.3571C52.6667 40.9972 52.8071 40.652 53.0572 40.3975C53.3072 40.143 53.6464 40 54 40H56.6667C57.0203 40 57.3594 40.143 57.6095 40.3975C57.8595 40.652 58 40.9972 58 41.3571V58.6429C58 59.0028 57.8595 59.348 57.6095 59.6025C57.3594 59.857 57.0203 60 56.6667 60H54C53.6464 60 53.3072 59.857 53.0572 59.6025C52.8071 59.348 52.6667 59.0028 52.6667 58.6429V41.3571Z" stroke="white" stroke-width="2" stroke-linecap="round" stroke-linejoin="round"/>
</svg>
