<svg width="60" height="60" viewBox="0 0 60 60" fill="none" xmlns="http://www.w3.org/2000/svg">
<path d="M12.5 47.5L19.3925 29.1225C19.5711 28.6461 19.8908 28.2355 20.3089 27.9455C20.7271 27.6556 21.2237 27.5002 21.7325 27.5H52.5M12.5 47.5H47.565C48.7282 47.4997 49.8549 47.0938 50.7511 46.3523C51.6473 45.6108 52.2569 44.5801 52.475 43.4375L54.965 30.41C55.0245 30.052 55.0054 29.6854 54.9089 29.3355C54.8125 28.9857 54.641 28.661 54.4064 28.3841C54.1719 28.1072 53.8798 27.8847 53.5506 27.732C53.2214 27.5793 52.8629 27.5002 52.5 27.5M12.5 47.5C11.1739 47.5 9.90215 46.9732 8.96447 46.0355C8.02678 45.0979 7.5 43.8261 7.5 42.5V15C7.5 13.6739 8.02678 12.4021 8.96447 11.4645C9.90215 10.5268 11.1739 10 12.5 10H22.5L30 17.5H47.5C48.8261 17.5 50.0979 18.0268 51.0355 18.9645C51.9732 19.9021 52.5 21.1739 52.5 22.5V27.5" stroke="#AAAAAA" stroke-width="2" stroke-linecap="round" stroke-linejoin="round"/>
</svg>
