<svg width="100" height="100" viewBox="0 0 100 100" fill="none" xmlns="http://www.w3.org/2000/svg">
<path d="M34 32.7143C34 31.9944 34.281 31.304 34.781 30.795C35.2811 30.286 35.9594 30 36.6667 30H42C42.7072 30 43.3855 30.286 43.8856 30.795C44.3857 31.304 44.6667 31.9944 44.6667 32.7143V67.2857C44.6667 68.0056 44.3857 68.696 43.8856 69.205C43.3855 69.714 42.7072 70 42 70H36.6667C35.9594 70 35.2811 69.714 34.781 69.205C34.281 68.696 34 68.0056 34 67.2857V32.7143Z" stroke="white" stroke-width="2" stroke-linecap="round" stroke-linejoin="round"/>
<path d="M55.3333 32.7143C55.3333 31.9944 55.6143 31.304 56.1144 30.795C56.6145 30.286 57.2928 30 58 30H63.3333C64.0406 30 64.7189 30.286 65.219 30.795C65.719 31.304 66 31.9944 66 32.7143V67.2857C66 68.0056 65.719 68.696 65.219 69.205C64.7189 69.714 64.0406 70 63.3333 70H58C57.2928 70 56.6145 69.714 56.1144 69.205C55.6143 68.696 55.3333 68.0056 55.3333 67.2857V32.7143Z" stroke="white" stroke-width="2" stroke-linecap="round" stroke-linejoin="round"/>
</svg>
