<svg width="143" height="50" viewBox="0 0 143 50" fill="none" xmlns="http://www.w3.org/2000/svg">
<path d="M8.96 49.84C8.64 49.84 8.32 49.84 8 49.84C7.73333 49.84 7.44 49.8133 7.12 49.76C5.04 49.5467 3.33333 48.8267 2 47.6C0.666667 46.3733 0 44.7733 0 42.8C0 40.4 0.906667 38.2667 2.72 36.4C4.32 34.7467 6.34667 33.52 8.8 32.72C11.7867 31.7067 15.12 30.9333 18.8 30.4C17.4667 27.68 16.8 24.6667 16.8 21.36C16.8 14.8533 18.4 9.62667 21.6 5.68C24.3733 2.26667 27.6533 0.560002 31.44 0.560002C34.2133 0.560002 36.5333 1.54667 38.4 3.52C40.2667 5.44 41.2 8.16 41.2 11.68C41.2 15.2 40.1067 19.28 37.92 23.92C37.4933 24.8267 37.0133 25.7067 36.48 26.56C36 27.36 35.4667 28.1867 34.88 29.04H38.48C38.7467 28.7733 39.1467 28.2933 39.68 27.6C40.2133 26.9067 40.88 26.0267 41.68 24.96L48.16 16.16C48.9067 15.0933 49.6 14.16 50.24 13.36C50.88 12.5067 51.44 11.7867 51.92 11.2L52.56 6.88C52.6667 5.70667 52.72 5.01333 52.72 4.8C52.72 2.72 52.2133 1.68 51.2 1.68C50.72 1.68 50.16 1.92 49.52 2.4C48.6133 2.98667 47.6533 3.89333 46.64 5.12C45.7333 6.18667 45.2 6.90667 45.04 7.28C44.8267 7.70667 44.5867 7.92 44.32 7.92C44.1067 7.92 44 7.78667 44 7.52C44 7.30667 44.0267 7.14667 44.08 7.04C45.0933 4.74667 46.8533 2.82667 49.36 1.28C50.5867 0.426668 51.76 0 52.88 0C54.8 0 55.76 1.25333 55.76 3.76C55.76 4.34667 55.68 5.49334 55.52 7.2L54.88 14C54.6133 17.0933 54.3467 19.84 54.08 22.24C53.8133 24.5867 53.6267 26.6133 53.52 28.32C56.1333 28.1067 57.8133 27.7867 58.56 27.36C58.8267 27.1467 59.0667 27.04 59.28 27.04C59.3867 27.04 59.44 27.12 59.44 27.28C59.44 27.6 59.2 27.92 58.72 28.24C57.5467 28.9333 55.8133 29.4933 53.52 29.92C53.52 30.5067 53.4933 31.0933 53.44 31.68C53.44 32.2133 53.44 32.7467 53.44 33.28C53.44 36.64 53.6533 39.1733 54.08 40.88C54.88 44.3467 56.24 46.08 58.16 46.08C60.4533 46.08 62.48 44.08 64.24 40.08C64.4 39.7067 64.5867 39.52 64.8 39.52C65.12 39.52 65.2 39.8133 65.04 40.4C64.2933 42.64 63.0933 44.4267 61.44 45.76C59.84 47.1467 58.1867 47.84 56.48 47.84C53.1733 47.84 51.1467 45.4667 50.4 40.72C50.24 39.8667 50.1333 38.9333 50.08 37.92C50.0267 36.8533 50 35.68 50 34.4C50 33.8133 50 33.1733 50 32.48C50 31.7867 50.0267 31.0667 50.08 30.32C49.5467 30.3733 48.4533 30.4 46.8 30.4H40.08C38.6933 31.9467 37.2267 33.44 35.68 34.88C34.1867 36.32 32.6133 37.7333 30.96 39.12C31.1733 39.12 31.36 39.1467 31.52 39.2C31.7333 39.2 31.9467 39.2 32.16 39.2C36 39.2 39.4133 37.2267 42.4 33.28C42.4533 33.12 42.5867 33.0933 42.8 33.2C43.0133 33.36 43.04 33.52 42.88 33.68C39.68 37.8933 36.0267 40 31.92 40C31.28 40 30.6933 39.9467 30.16 39.84C24.6133 44.4267 19.6533 47.3867 15.28 48.72C14.2133 49.0933 13.1467 49.36 12.08 49.52C11.0133 49.7333 9.97333 49.84 8.96 49.84ZM19.92 30.24C24.2933 29.6 28.9333 29.2267 33.84 29.12C35.12 27.2533 36.2133 25.3867 37.12 23.52C39.1467 19.36 40.16 15.6267 40.16 12.32C40.16 9.17334 39.28 6.61334 37.52 4.64C35.8133 2.61334 33.6267 1.6 30.96 1.6C27.5467 1.6 24.64 3.2 22.24 6.4C19.4133 10.0267 18 15.0133 18 21.36C18 24.56 18.64 27.52 19.92 30.24ZM45.28 28.72C46.72 28.72 48.3733 28.6667 50.24 28.56C50.3467 26.4267 50.5067 24.16 50.72 21.76C50.9867 19.3067 51.3333 16.6933 51.76 13.92C51.5467 14.2933 51.1733 14.9067 50.64 15.76C50.16 16.56 49.4667 17.5467 48.56 18.72L41.52 28.64C42.5333 28.6933 43.7867 28.72 45.28 28.72ZM29.12 38.72L37.52 30.24C36.56 30.1867 35.4133 30.1867 34.08 30.24C33.0667 31.7333 31.9733 33.12 30.8 34.4C29.68 35.68 28.5067 36.9067 27.28 38.08C27.9733 38.3467 28.5867 38.56 29.12 38.72ZM26.48 37.6C28.88 35.36 31.04 32.9333 32.96 30.32C29.44 30.5333 25.3867 31.0667 20.8 31.92C22.3467 34.48 24.24 36.3733 26.48 37.6ZM10.8 47.84C16.3467 47.84 22.2133 45.04 28.4 39.44L26.56 38.72C21.0667 43.4667 15.6267 45.84 10.24 45.84C8.69333 45.84 7.28 45.6533 6 45.28C5.84 45.1733 5.76 45.0667 5.76 44.96C5.76 44.64 5.89333 44.5333 6.16 44.64C7.44 44.96 8.72 45.12 10 45.12C15.12 45.12 20.3733 42.8267 25.76 38.24C23.36 36.9067 21.36 34.8533 19.76 32.08C17.3067 32.5067 15.12 32.96 13.2 33.44C11.28 33.92 9.62667 34.3733 8.24 34.8C3.44 36.4533 1.04 38.8 1.04 41.84C1.04 43.3867 1.78667 44.6933 3.28 45.76C4.72 46.8267 6.48 47.4667 8.56 47.68C9.30667 47.7867 10.0533 47.84 10.8 47.84Z" fill="#CCCCCC"/>
<path d="M63.4844 45.6C61.4577 45.3333 60.4444 43.92 60.4444 41.36C60.4444 37.4133 62.391 32.5333 66.2844 26.72C66.551 26.2933 67.2177 26.08 68.2844 26.08C69.9377 26.08 70.7644 26.3467 70.7644 26.88L70.6844 27.04C70.0444 27.68 69.351 28.5067 68.6044 29.52C67.911 30.5333 67.191 31.7333 66.4444 33.12C65.1644 35.4133 64.1777 37.5733 63.4844 39.6C63.111 40.56 62.9244 41.44 62.9244 42.24C62.9244 43.3067 63.271 43.84 63.9644 43.84C64.7644 43.84 65.7511 43.2533 66.9244 42.08C67.3511 41.6533 69.4844 38.6933 73.3244 33.2C74.1244 32.1333 74.7644 31.6 75.2444 31.6C75.6177 31.6 75.8044 32.0533 75.8044 32.96C75.8044 33.44 75.7777 33.92 75.7244 34.4C75.7244 34.8267 75.7244 35.2533 75.7244 35.68C75.7244 41.1733 76.8177 43.92 79.0044 43.92C80.4444 43.92 82.0711 42.9867 83.8844 41.12L85.3244 39.6C85.4844 39.4933 85.6444 39.6 85.8044 39.92C85.5911 40.5067 84.6577 41.4933 83.0044 42.88C80.9244 44.64 79.031 45.52 77.3244 45.52C76.8444 45.52 76.3644 45.44 75.8844 45.28C74.4444 44.8 73.4577 43.12 72.9244 40.24C72.5511 38.1067 72.391 36.7733 72.4444 36.24C72.1244 36.8267 71.0844 38.3733 69.3244 40.88C66.8177 44.24 64.871 45.8133 63.4844 45.6Z" fill="#CCCCCC"/>
<path d="M80.6244 45.44C80.091 45.44 79.851 45.1733 79.9044 44.64C80.0644 43.9467 80.251 42.9067 80.4644 41.52C80.6777 40.08 80.9177 38.24 81.1844 36C81.291 34.9867 81.3977 34.08 81.5044 33.28C81.611 32.4267 81.691 31.6533 81.7444 30.96L81.9844 28C82.0377 27.4133 82.3844 26.9067 83.0244 26.48C83.7177 26.0533 84.411 25.84 85.1044 25.84C86.0644 25.84 86.411 26.24 86.1444 27.04L85.0244 31.2C84.7577 31.9467 84.5177 32.72 84.3044 33.52C84.091 34.32 83.851 35.1467 83.5844 36C84.9177 33.7067 86.5177 31.5467 88.3844 29.52C90.4644 27.3867 92.011 26.32 93.0244 26.32C94.3044 26.32 95.211 27.04 95.7444 28.48C96.331 29.8667 96.3577 30.56 95.8244 30.56C95.7177 30.56 95.531 30.3467 95.2644 29.92C94.7844 28.96 94.1177 28.48 93.2644 28.48C91.131 28.48 88.491 30.8533 85.3444 35.6C83.5844 38.2667 82.251 41.3333 81.3444 44.8C81.2377 45.2267 80.9977 45.44 80.6244 45.44Z" fill="#CCCCCC"/>
<path d="M96.3075 46.24C94.9742 46.24 93.8808 45.6267 93.0275 44.4C92.1742 43.1733 91.7475 41.6 91.7475 39.68C91.7475 38.1333 92.0142 36.56 92.5475 34.96C94.5208 28.9867 96.9475 25.8667 99.8275 25.6C100.148 25.2267 100.601 25.04 101.188 25.04C102.254 25.04 103.294 25.52 104.308 26.48C105.374 27.44 105.961 28.4533 106.068 29.52C106.761 30.3733 107.774 30.8 109.108 30.8C109.534 30.8 110.174 30.7467 111.028 30.64C111.881 30.5333 112.521 30.48 112.948 30.48C113.161 30.48 113.214 30.6133 113.108 30.88C113.054 31.0933 112.788 31.3333 112.308 31.6C111.348 32.08 110.148 32.3733 108.708 32.48H107.748C106.841 32.48 106.174 32.3733 105.748 32.16C106.014 34.1867 105.054 37.0933 102.868 40.88C100.894 44.4533 98.7075 46.24 96.3075 46.24ZM96.7875 44.64C98.1742 44.64 99.6675 43.3867 101.268 40.88C101.694 40.1867 102.094 39.4133 102.468 38.56C102.894 37.7067 103.241 36.7467 103.508 35.68C104.041 33.8667 104.254 32.56 104.148 31.76C102.174 31.44 101.028 30.2933 100.708 28.32C99.2675 28.7467 97.8808 30.5867 96.5475 33.84C95.3208 36.88 94.7075 39.3333 94.7075 41.2C94.7075 43.4933 95.4008 44.64 96.7875 44.64Z" fill="#CCCCCC"/>
<path d="M107.856 45.44C107.322 45.44 107.082 45.1733 107.136 44.64C107.296 43.9467 107.482 42.9067 107.696 41.52C107.909 40.08 108.149 38.24 108.416 36C108.522 34.9867 108.629 34.08 108.736 33.28C108.842 32.4267 108.922 31.6533 108.976 30.96L109.216 28C109.269 27.4133 109.616 26.9067 110.256 26.48C110.949 26.0533 111.642 25.84 112.336 25.84C113.296 25.84 113.642 26.24 113.376 27.04L112.256 31.2C111.989 31.9467 111.749 32.72 111.536 33.52C111.322 34.32 111.082 35.1467 110.816 36C112.149 33.7067 113.749 31.5467 115.616 29.52C117.696 27.3867 119.242 26.32 120.256 26.32C121.536 26.32 122.442 27.04 122.976 28.48C123.562 29.8667 123.589 30.56 123.056 30.56C122.949 30.56 122.762 30.3467 122.496 29.92C122.016 28.96 121.349 28.48 120.496 28.48C118.362 28.48 115.722 30.8533 112.576 35.6C110.816 38.2667 109.482 41.3333 108.576 44.8C108.469 45.2267 108.229 45.44 107.856 45.44Z" fill="#CCCCCC"/>
<path d="M121.139 45.6C119.432 45.3333 118.579 44.1333 118.579 42C118.579 38.7467 120.072 35.1467 123.059 31.2C126.152 27.04 129.352 24.96 132.659 24.96C133.779 24.96 134.792 25.2267 135.699 25.76C136.659 26.24 137.139 27.0133 137.139 28.08C137.139 29.3067 136.632 30 135.619 30.16C135.939 29.6267 136.099 29.0933 136.099 28.56C136.099 27.3867 135.432 26.8 134.099 26.8C132.819 26.8 131.432 27.44 129.939 28.72C126.259 31.8667 123.565 35.52 121.859 39.68C121.325 40.96 121.059 42.0267 121.059 42.88C121.059 43.5733 121.299 43.92 121.779 43.92C122.312 43.92 123.245 43.3067 124.579 42.08C125.485 41.2267 127.459 38.64 130.499 34.32C131.299 33.2 131.939 32.64 132.419 32.64C132.845 32.64 133.059 33.76 133.059 36V40.48C133.539 42.8267 134.365 44 135.539 44C136.179 44 136.952 43.7867 137.859 43.36C138.819 42.88 139.752 42.1333 140.659 41.12L142.099 39.6C142.259 39.5467 142.445 39.6533 142.659 39.92C142.445 40.5067 141.512 41.4933 139.859 42.88C137.779 44.64 135.859 45.52 134.099 45.52C133.619 45.52 133.139 45.44 132.659 45.28C131.272 44.8 130.365 43.3067 129.939 40.8C129.832 40.1067 129.725 39.52 129.619 39.04C129.565 38.56 129.539 38.16 129.539 37.84C129.539 37.68 129.539 37.5467 129.539 37.44C129.219 38.08 128.285 39.4133 126.739 41.44C124.445 44.4267 122.579 45.8133 121.139 45.6Z" fill="#CCCCCC"/>
</svg>
