<svg width="111" height="32" viewBox="0 0 111 32" fill="none" xmlns="http://www.w3.org/2000/svg">
<path d="M78.3789 8.9541C81.4491 8.63355 85.0237 8.50982 87.7285 10.1416C88.0721 10.3747 88.0576 10.7029 88.0723 11.0381C87.9991 12.4004 87.7291 14.0687 86.8594 15.2197C86.2819 15.9045 84.6955 15.2199 83.7598 15.0449C80.2582 14.4548 77.1726 15.9335 77.0117 19.8457C76.7705 25.3682 80.7038 26.7016 85.1484 25.3174C85.6455 25.1935 86.2813 24.8658 86.5957 25.332L86.6396 25.4189C86.8736 26.8906 87.0785 28.4869 88.0215 29.6162C88.3868 30.097 88.4229 30.5845 87.7285 30.8613C81.5075 33.2072 72.4141 32.2309 70.1553 25.0547C67.9186 18.3521 70.6961 10.0252 78.3789 8.9541Z" fill="white"/>
<path fill-rule="evenodd" clip-rule="evenodd" d="M34.8437 8.77246C36.6786 8.77246 38.2878 9.05665 39.6621 9.61035C41.0363 10.1713 42.1913 10.966 43.1269 11.9932C44.0552 13.0204 44.7573 14.2588 45.2324 15.7012C45.7076 17.151 45.9414 18.7689 45.9414 20.4883C45.9414 22.2076 45.7076 23.7742 45.2324 25.1875C44.7646 26.608 44.0552 27.8243 43.1269 28.8369C42.1913 29.8568 41.0362 30.6294 39.6621 31.1758C38.2878 31.7222 36.6567 31.9922 34.8437 31.9922C33.031 31.9921 31.4377 31.7221 30.0635 31.1758C28.6891 30.6294 27.5343 29.8496 26.5986 28.8369C25.6703 27.817 24.9683 26.6008 24.4932 25.1875C24.018 23.7669 23.7842 22.2367 23.7842 20.4883C23.7842 18.7397 24.018 17.1437 24.4932 15.7012C24.961 14.2588 25.663 13.0204 26.5986 11.9932C27.5343 10.9587 28.6892 10.1713 30.0635 9.61035C31.4449 9.04949 33.0092 8.7725 34.8437 8.77246ZM34.8369 14.8271C33.5723 14.8271 32.6365 15.3153 32.0371 16.2842C31.4304 17.2604 31.1309 18.6887 31.1309 20.4883C31.1309 22.2877 31.4377 23.6795 32.0371 24.6484C32.6439 25.6172 33.5723 26.1055 34.8369 26.1055C36.1014 26.1055 37.0441 25.6244 37.6582 24.6484C38.2795 23.6795 38.5869 22.3168 38.5869 20.4883C38.5869 18.6596 38.2723 17.2532 37.6582 16.2842C37.0368 15.3154 36.1014 14.8272 34.8369 14.8271Z" fill="white"/>
<path fill-rule="evenodd" clip-rule="evenodd" d="M98.6836 8.80176C100.182 8.80178 101.527 8.97702 102.733 9.33398C103.939 9.69824 104.963 10.2443 105.811 10.9873C106.658 11.7304 107.309 12.6777 107.77 13.8359C108.223 14.9943 108.23 14.8927 108.245 22.1055C108.252 25.8277 109.283 28.0351 110.043 29.1572L110.036 29.165C110.365 29.6532 110.101 30.3161 109.531 30.4473C107.974 30.8115 105.694 31.2921 104.495 31.4961C102.938 31.7584 101.308 31.9697 99.5898 31.9697C98.0985 31.9697 96.7315 31.8384 95.4814 31.5615C94.2316 31.2847 93.1642 30.8482 92.2725 30.251C91.3879 29.6463 90.6929 28.859 90.1885 27.8682C89.6841 26.8846 89.4355 25.6459 89.4355 24.2471C89.4356 22.8486 89.7353 21.6903 90.3418 20.7725C90.9412 19.8618 91.724 19.1324 92.667 18.5859C93.6173 18.0396 94.6629 17.6615 95.8105 17.4502C96.9582 17.2389 98.0768 17.1289 99.166 17.1289H100.657C101.315 17.1287 101.753 16.379 101.366 15.8545C101.359 15.8472 101.358 15.8467 101.358 15.8467C101.103 15.5045 100.774 15.2348 100.372 15.0527C99.97 14.8706 99.5239 14.7398 99.0342 14.667C98.5444 14.5941 98.0473 14.5576 97.5283 14.5576C96.8413 14.5576 96.0298 14.6225 95.1162 14.79C93.7201 15.045 92.5284 15.4537 91.5781 15.8252C90.8983 16.0875 90.2329 15.4315 90.4814 14.7539C90.708 14.1566 90.9049 13.5079 90.9707 12.9834C91.0949 11.9781 91.0805 11.2788 91.0293 10.8271C90.9781 10.4337 91.2341 10.0619 91.6143 9.94531C92.7545 9.60294 93.8802 9.33395 95.0059 9.14453C96.3656 8.91868 97.5944 8.80176 98.6836 8.80176ZM99.3408 21.6758C98.3321 21.6758 97.484 21.8866 96.7969 22.3164C96.1098 22.7462 95.7666 23.344 95.7666 24.1162C95.7666 24.6844 95.8985 25.136 96.1543 25.4639C96.4101 25.7916 96.7318 26.0463 97.1191 26.2139C97.5066 26.3814 97.9232 26.4984 98.3691 26.5566C98.8148 26.6149 99.224 26.6445 99.5967 26.6445C99.8525 26.6445 100.226 26.6149 100.716 26.5566C100.942 26.5275 101.205 26.4914 101.476 26.4404L101.483 26.4473C101.936 26.367 102.236 25.9296 102.155 25.4707C101.98 24.5164 101.885 23.2632 101.834 22.4619C101.805 22.0176 101.439 21.6758 100.993 21.6758H99.3408Z" fill="white"/>
<path d="M14.7227 0C16.097 -5.34553e-09 17.4062 0.102117 18.6416 0.298828C19.6869 0.466413 20.8346 0.779351 22.0918 1.23828C22.5157 1.39126 22.7791 1.80668 22.7646 2.25098C22.7354 3.16896 22.6249 4.02155 22.3398 4.9541C22.0547 5.88665 21.7259 6.51376 21.3896 7.08203C21.141 7.50429 20.6293 7.69393 20.1689 7.54102C19.8986 7.44635 19.6357 7.36579 19.3945 7.29297C18.9267 7.14728 18.4732 7.03762 18.042 6.95019C17.6108 6.86278 17.1793 6.79762 16.748 6.75391C16.3167 6.71019 15.8628 6.68848 15.373 6.68848L15.3662 6.68066C13.0415 6.68066 11.2432 7.46042 9.96387 9.01953C8.68457 10.5786 8.04883 12.9031 8.04883 15.9922C8.04892 22.0536 10.6002 25.084 15.71 25.084C16.6237 25.084 17.4938 25.0039 18.3125 24.8291C18.7071 24.7417 19.2259 24.6035 19.7666 24.4434C20.3441 24.2758 20.9582 24.6253 21.0752 25.2227C21.3676 26.7306 21.7916 28.1586 22.3252 29.499C22.5444 30.0453 22.2452 30.6643 21.6826 30.8467C21.4049 30.9414 21.1342 31.0219 20.8711 31.0947C20.1548 31.2987 19.4674 31.4449 18.8096 31.5469C18.1518 31.6416 17.4938 31.7141 16.8506 31.7578C16.2 31.8015 15.5338 31.8232 14.8467 31.8232C12.4126 31.8232 10.2634 31.4303 8.41406 30.6436C6.56456 29.8567 5.0147 28.7631 3.76465 27.3643C2.51472 25.9655 1.572 24.2898 0.943359 22.3447C0.314686 20.4068 8.89795e-09 18.2867 0 15.999C1.14188e-05 13.7114 0.329423 11.5916 0.987305 9.63183C1.65254 7.67201 2.60248 5.97387 3.85254 4.5459C5.10248 3.11811 6.64485 2.00352 8.47949 1.20215C10.3216 0.40076 12.3981 2.59814e-05 14.7227 0Z" fill="white"/>
<path d="M56.4346 9.01953C59.9069 9.01953 62.5096 9.668 64.2422 10.9502C65.9747 12.2397 66.8447 14.0396 66.8447 16.3564C66.8447 17.2305 66.7422 17.9952 66.5449 18.6436C66.3403 19.2918 66.0994 19.8531 65.8144 20.3193C65.522 20.7856 65.2216 21.1573 64.9072 21.4414C64.8415 21.4924 64.783 21.5506 64.7246 21.6016C64.3737 21.9076 64.2865 22.4104 64.5059 22.8184L64.5205 22.8115L68.373 30.0752C68.7163 30.7163 68.2919 31.4887 67.5537 31.5615C67.4222 31.5761 67.2829 31.5831 67.1367 31.5977C66.4351 31.6487 65.7554 31.7217 65.0976 31.7217C64.2935 31.7217 63.5181 31.6559 62.7725 31.5977C62.2829 31.5612 61.8517 31.5104 61.4717 31.4521C61.1281 31.4011 60.8435 31.182 60.6973 30.876L56.1494 21.3467L56.749 21.0049C57.7504 20.444 58.9053 19.8388 59.2783 19.2051C59.6511 18.5712 59.834 17.8862 59.834 17.1504C59.834 16.4145 59.6149 15.8169 59.1689 15.3506C58.7231 14.8845 58.014 14.6514 57.042 14.6514C56.8374 14.6514 56.5814 14.6587 56.333 14.666C55.7703 14.6879 55.3244 15.1393 55.3242 15.6855V30.5342C55.3241 31.0368 54.9433 31.474 54.4316 31.5469C54.0297 31.6051 53.6496 31.649 53.2988 31.6709C52.6921 31.7146 52.1656 31.7363 51.7051 31.7363C51.2153 31.7363 49.9365 31.6417 49.3662 31.5762C49.0958 31.547 48.6496 31.4888 48.0576 31.4014C47.3925 31.3067 46.9904 30.6217 47.2461 30.0098C48.4377 27.1611 49.1172 23.7439 49.1172 20.3779C49.1172 17.0121 48.489 13.8427 47.3779 11.0742C47.1367 10.4695 47.5384 9.8061 48.1963 9.7041C49.7166 9.47828 51.2224 9.2895 52.3262 9.1875C53.7735 9.05637 55.1481 9.01954 56.4346 9.01953Z" fill="white"/>
</svg>
